<svg viewBox="0 0 97.71 29.23" xmlns="http://www.w3.org/2000/svg"><path d="M3.19 1.58l.15-.79h9.78c4.37 0 6.71 1.35 6.65 4.77S16.7 10 15.53 10.34s-2 .35-2.09.61 5.13 1 5.16 5.27S14.76 22 7.79 22H0l.15-.86h1.9l4-19.56zm5 8.85h2.91c2.73 0 4.19-2 4.63-4.89S14.91 1.61 13 1.61h-3zM6 21.17h4.31c3 0 3.23-2.53 3.66-4.47 1.17-5.34-1.79-5.48-3.37-5.48H8.06zm22.88.65c.82.79 3 .56 4.28-.73a11.11 11.11 0 0 0 2.08-3.4l-.68-.23A20.65 20.65 0 0 1 33.07 20c-.82 1.14-2 1.29-1.85 0s2.44-10.51 2.44-10.51h-3.17L29.9 12A3.73 3.73 0 0 0 28 9.34c-1.9-.91-6.94 1.15-8 5.63s.88 7.35 3.92 7.35A4.51 4.51 0 0 0 27.94 20a3.28 3.28 0 0 0 .94 1.82zm0-5.8c-.8 3.34-2.46 5.51-4.6 5.51s-1.61-3.6-.64-6.62 1.7-5.39 3.77-5S29.64 13 28.91 16zm10.66 5.13a2.83 2.83 0 0 1 .12 2.37 14.54 14.54 0 0 1-2.87 4.1c-.85.76-1.14.32-1.17-.59s-1.7-1.37-2.29-.43-.09 2.63 1.94 2.63 4.21-3 5.79-6.68 4-10.36 4.08-10.78 1.31.53 2.13.21a1.64 1.64 0 0 0 .44-2.43c-.55-.79-2.6-.5-3 1S42 18.36 42 18.36L39.75 11a2.23 2.23 0 0 0-3-1.52A7.71 7.71 0 0 0 35 10.84l.32 1.16.36-.47c.35-.47.7-.15.93.41 0-.02 2.7 8.33 2.96 9.21zm12.46.06l2.23-11h3.31s-1 5-1.44 7.15-.7 3.45.09 4.42 3.45.79 4.25-.06 1.9-2.37 1.9-2.37a6.24 6.24 0 0 0 1.7 1.91 6.89 6.89 0 0 0 5.96.44 6.76 6.76 0 0 0 3.49-3.25l-.7-.38a4 4 0 0 1-.59 1 5.73 5.73 0 0 1-3 2.08c-1.43.49-3.48.47-4-1.5a5.41 5.41 0 0 1 .29-3.33h2c2 0 6.42-.74 6.42-3.49s-1.88-3.9-4.07-3.9a8.21 8.21 0 0 0-7 4.07 6.88 6.88 0 0 0-.84 5.51 14.9 14.9 0 0 1-1.85 2.43c-.58.44-1.61.53-1.34-1.11s2.34-10.4 2.34-10.4h-6.76s.38-1.85 1.2-5.15S58.11.79 59 .79s.79.47.23 1.06a1.48 1.48 0 0 0 .15 2A1.62 1.62 0 0 0 62 3.11c.47-1.53-.85-2.67-2.26-2.93a6.29 6.29 0 0 0-6.21 3.19 30.08 30.08 0 0 0-2.34 6.09h-2.36l-.21.79H51l-2.25 11h-1.94l-.18.79h6.94l.18-.82zm13.7-5.63a20.76 20.76 0 0 1 1.43-4.39 2.39 2.39 0 0 1 3.2-1.19c.79.53 1.23 2.17.38 3.86a3.65 3.65 0 0 1-3.34 1.79c-.56-.04-1.67-.07-1.67-.07zM75 17c-.61 2.69-.5 3.54.18 4.45s2.87.88 4.13-.06a8.92 8.92 0 0 0 2.14-2.64 6.53 6.53 0 0 0 .35.88 4.61 4.61 0 0 0 4.24 2.4 5.07 5.07 0 0 0 4.31-2.4 3.07 3.07 0 0 0 .82 2c.79.71 2.93.65 4.34-.82a10.39 10.39 0 0 0 2-3.28l-.51-.34a12.84 12.84 0 0 1-1.26 2.17c-.85 1.2-2.43 2.2-2 .15S97.71 0 97.71 0l-6 .26-.18.79h2.73L92.15 11a4.06 4.06 0 0 0-3.55-2.13c-2.52 0-4.95 1.85-6.27 4.31a7.81 7.81 0 0 0-1 4.42 14.5 14.5 0 0 1-1.67 2.46c-.91 1-2.14.91-1.88-.38S81.84 0 81.84 0L76.1.32l-.18.73h2.46S75.66 14.32 75 17zm10.87-4c.71-2.14 2-3.75 3.86-3.34S92 12 91.36 14.85s-1.82 6.42-4.66 6.44-2.61-2.84-.79-8.29zM43.22 28.53l.12-2 .07-1.49v-1h.76l-.1 1.96h3.11l.06-1.54a3.58 3.58 0 0 0 0-.4H48c-.06.85-.11 1.62-.14 2.31s0 1.39-.06 2.12H47c.07-.68.11-1.36.12-2.05H44v2.05h-.75zm5.78 0l.06-.75.08-1.55V24.1H50c-.05.54-.08 1.1-.11 1.69 0 .94-.07 1.86-.08 2.74zM53.92 26h1.87c-.06.65-.1 1.43-.12 2.35a11.52 11.52 0 0 1-2 .21 5.5 5.5 0 0 1-1.16-.13 2.7 2.7 0 0 1-.94-.41 1.71 1.71 0 0 1-.58-.7 2.18 2.18 0 0 1-.19-.91 2.25 2.25 0 0 1 .24-1 2.13 2.13 0 0 1 .69-.8 2.83 2.83 0 0 1 1-.47A5.11 5.11 0 0 1 54 24a9.23 9.23 0 0 1 1.64.17v.53a8.25 8.25 0 0 0-.93-.21 4.76 4.76 0 0 0-.72-.06 3.93 3.93 0 0 0-1 .13 2.16 2.16 0 0 0-.8.41 1.6 1.6 0 0 0-.51.67 2 2 0 0 0-.17.82 1.67 1.67 0 0 0 .14.71 1.22 1.22 0 0 0 .42.55 2 2 0 0 0 .69.32 3.15 3.15 0 0 0 .89.11 5 5 0 0 0 .62 0A4.88 4.88 0 0 0 55 28l.07-1.54h-1.18c.02-.14.03-.28.03-.46zm2.88 2.53l.13-2 .07-1.45v-.98h.75l-.1 1.9h3.11l.07-1.54v-.4h.76a70.97 70.97 0 0 0-.2 4.43h-.77c.06-.68.1-1.36.12-2.05h-3.11l-.06 1.33v.72h-.77zm7.53-.12a4.15 4.15 0 0 0 0-.54 4 4 0 0 0 .73.23 2.83 2.83 0 0 0 .63.07 1.78 1.78 0 0 0 .53-.08.79.79 0 0 0 .37-.24.53.53 0 0 0 .13-.34.54.54 0 0 0 0-.22.67.67 0 0 0-.13-.2 2.38 2.38 0 0 0-.33-.27l-.65-.48-.29-.21a2.26 2.26 0 0 1-.29-.23 1.52 1.52 0 0 1-.22-.22.92.92 0 0 1-.13-.19.64.64 0 0 1-.08-.19.78.78 0 0 1 0-.22.86.86 0 0 1 .18-.52 1.3 1.3 0 0 1 .55-.39 2.52 2.52 0 0 1 1-.15 7.62 7.62 0 0 1 1 .1 3.62 3.62 0 0 0 0 .51 3.94 3.94 0 0 0-1.06-.17 1.44 1.44 0 0 0-.55.09.8.8 0 0 0-.34.24.44.44 0 0 0-.12.29.57.57 0 0 0 0 .18.54.54 0 0 0 .1.16 1.12 1.12 0 0 0 .21.23l.36.28.44.31c.26.18.44.31.56.41a2.46 2.46 0 0 1 .28.27.92.92 0 0 1 .16.27.81.81 0 0 1 .06.31.87.87 0 0 1-.14.48.94.94 0 0 1-.38.36 1.57 1.57 0 0 1-.55.2 3.21 3.21 0 0 1-.63.06 3.35 3.35 0 0 1-.54 0 7.4 7.4 0 0 1-.86-.19zm8-.41c0 .16-.07.33-.09.51a8 8 0 0 1-1.39.13 3.91 3.91 0 0 1-1.08-.15 2.44 2.44 0 0 1-.9-.44 1.72 1.72 0 0 1-.56-.71 2.2 2.2 0 0 1-.18-.88 2.45 2.45 0 0 1 .19-1 2 2 0 0 1 .6-.79 2.6 2.6 0 0 1 1-.49 4.6 4.6 0 0 1 1.13-.18 7.17 7.17 0 0 1 1.31.12v.5a5.68 5.68 0 0 0-.73-.14 3.82 3.82 0 0 0-.57 0 3.15 3.15 0 0 0-.87.12 2 2 0 0 0-.74.38 1.68 1.68 0 0 0-.49.63 2 2 0 0 0-.17.79 2 2 0 0 0 .13.72 1.42 1.42 0 0 0 .42.58 2.05 2.05 0 0 0 .67.36 3 3 0 0 0 .87.12 5.47 5.47 0 0 0 1.45-.18zm.88.53l.13-2 .06-1.49v-.98h.75L74.06 26h3.11l.07-1.54v-.4H78c-.07.85-.11 1.62-.14 2.31s0 1.39-.06 2.12H77c.06-.68.1-1.36.12-2.05H74v2.09h-.76zM81.78 24a4.2 4.2 0 0 1 1.08.14 2.56 2.56 0 0 1 .9.46 1.88 1.88 0 0 1 .55.73 2.2 2.2 0 0 1 .17.86 2.38 2.38 0 0 1-.19 1 2 2 0 0 1-.56.79 2.66 2.66 0 0 1-1 .48 4.47 4.47 0 0 1-1.17.16 4.22 4.22 0 0 1-1.13-.15 2.29 2.29 0 0 1-.91-.45 1.69 1.69 0 0 1-.55-.71 2.36 2.36 0 0 1-.17-.87 2.53 2.53 0 0 1 .2-1 2.1 2.1 0 0 1 .6-.78 2.55 2.55 0 0 1 1-.48 4.53 4.53 0 0 1 1.18-.18zm0 .44a3.15 3.15 0 0 0-.87.12 2 2 0 0 0-.71.4 1.7 1.7 0 0 0-.45.65 2.08 2.08 0 0 0-.15.78 2 2 0 0 0 .14.72 1.47 1.47 0 0 0 .43.58 1.89 1.89 0 0 0 .68.34 2.94 2.94 0 0 0 .84.11 3 3 0 0 0 .81-.14 1.73 1.73 0 0 0 .69-.38 1.56 1.56 0 0 0 .44-.63 2.19 2.19 0 0 0 .14-.77 2.06 2.06 0 0 0-.13-.74 1.35 1.35 0 0 0-.41-.59 1.74 1.74 0 0 0-.67-.36 3.12 3.12 0 0 0-.82-.07zM88.1 24a4.2 4.2 0 0 1 1.08.14 2.56 2.56 0 0 1 .9.46 1.88 1.88 0 0 1 .55.73 2.2 2.2 0 0 1 .17.86 2.57 2.57 0 0 1-.19 1A1.93 1.93 0 0 1 90 28a2.53 2.53 0 0 1-.94.48 4.47 4.47 0 0 1-1.17.16 4.22 4.22 0 0 1-1.13-.15 2.33 2.33 0 0 1-.92-.45 1.75 1.75 0 0 1-.54-.71 2.18 2.18 0 0 1-.17-.87 2.53 2.53 0 0 1 .2-1 2.1 2.1 0 0 1 .6-.78 2.41 2.41 0 0 1 1-.48 4.47 4.47 0 0 1 1.17-.2zm0 .44a3 3 0 0 0-.87.12 2 2 0 0 0-.71.4 1.72 1.72 0 0 0-.46.65 2.29 2.29 0 0 0-.14.78 1.78 1.78 0 0 0 .14.72 1.47 1.47 0 0 0 .43.58 1.89 1.89 0 0 0 .68.34 2.91 2.91 0 0 0 .83.11 3 3 0 0 0 .85-.12 1.77 1.77 0 0 0 .7-.38A1.56 1.56 0 0 0 90 27a2.19 2.19 0 0 0 .14-.77 2.3 2.3 0 0 0-.13-.74 1.43 1.43 0 0 0-.41-.59 1.74 1.74 0 0 0-.67-.36 3.12 3.12 0 0 0-.87-.08zm3.51 4.09c.06-.56.11-1.24.15-2.05s.07-1.6.08-2.38h.76l-.12 2-.09 1.94h2.51v.46h-3.29z" fill="#00583d"/></svg>